<?xml version="1.0" standalone="no"?>
<!DOCTYPE svg PUBLIC "-//W3C//DTD SVG 20010904//EN"
 "http://www.w3.org/TR/2001/REC-SVG-20010904/DTD/svg10.dtd">
<svg version="1.0" xmlns="http://www.w3.org/2000/svg"
 width="1024.000000pt" height="765.000000pt" viewBox="0 0 1024.000000 765.000000"
 preserveAspectRatio="xMidYMid meet">

<g transform="translate(0.000000,765.000000) scale(0.100000,-0.100000)"
fill="#000000" stroke="none">
<path d="M4420 7058 c0 -125 15 -207 61 -347 41 -121 158 -353 258 -511 44
-69 76 -126 71 -128 -4 -2 -54 9 -110 23 -56 14 -105 24 -108 21 -10 -10 99
-220 149 -287 84 -113 208 -222 334 -291 28 -15 44 -28 38 -28 -8 0 -13 -14
-13 -37 0 -43 38 -112 77 -142 l28 -20 -32 -1 c-63 0 -321 -50 -440 -84 -180
-52 -300 -99 -473 -184 -85 -42 -159 -76 -164 -77 -5 0 -15 27 -23 60 -111
495 -421 759 -798 680 -127 -26 -269 -44 -441 -56 -360 -24 -778 37 -1130 166
-224 82 -546 258 -667 365 -26 23 -50 41 -52 38 -11 -10 18 -241 40 -324 75
-283 284 -563 572 -764 35 -24 61 -45 59 -47 -2 -2 -59 16 -127 41 -68 24
-125 43 -127 41 -2 -1 10 -29 26 -61 16 -33 43 -93 60 -134 82 -206 236 -376
454 -502 88 -51 85 -54 -34 -34 -43 7 -78 11 -78 8 0 -15 119 -170 182 -238
189 -199 469 -368 775 -468 l52 -17 -43 -67 c-187 -290 -186 -489 3 -612 l23
-16 -25 -49 c-36 -71 -100 -140 -154 -166 -89 -43 -208 -24 -271 44 l-23 24
23 29 c69 84 110 192 112 289 1 89 -18 125 -67 125 -26 0 -43 -12 -98 -69
-108 -113 -136 -229 -81 -338 l21 -40 -27 -25 c-41 -37 -70 -53 -151 -82 -100
-36 -115 -45 -73 -46 61 0 170 31 227 66 l58 34 51 -44 c135 -115 306 -92 443
58 30 34 66 81 81 106 14 25 27 46 28 48 1 2 30 -5 65 -16 l63 -19 22 -108
c57 -270 175 -517 354 -739 55 -68 210 -223 276 -277 29 -23 33 -34 43 -111
15 -115 33 -179 79 -286 87 -203 300 -457 447 -535 34 -18 36 -18 135 6 55 14
172 49 261 77 137 44 160 54 154 68 -17 40 -45 135 -45 152 0 18 2 18 68 -1
97 -28 249 -56 386 -70 65 -7 120 -18 122 -24 56 -165 145 -295 333 -488 l146
-150 80 6 c44 3 123 17 175 30 105 27 295 98 326 122 19 15 18 16 -7 38 -15
12 -32 32 -38 45 -20 38 -41 168 -48 293 l-6 117 59 12 c96 18 366 98 561 165
l182 62 7 -55 c4 -30 9 -120 13 -201 l6 -146 37 -12 c41 -14 272 -33 394 -33
l81 0 51 54 c145 153 239 399 270 705 l7 75 55 13 c227 56 385 113 560 204
282 146 478 334 591 564 108 222 127 482 49 687 -46 122 -169 272 -291 356
-129 88 -355 176 -534 209 l-94 18 -11 45 c-15 60 -68 169 -124 253 l-45 68
62 62 c167 169 219 376 137 544 -59 120 -196 234 -348 291 -90 33 -240 41
-331 17 -77 -20 -178 -70 -246 -122 l-50 -39 -81 51 -81 50 -12 80 c-52 342
-176 585 -364 719 -161 114 -344 167 -645 186 -246 16 -369 47 -566 146 -335
169 -771 544 -1069 922 -44 56 -84 102 -89 102 -4 0 -8 -51 -8 -112z m224
-272 c105 -117 280 -288 386 -376 185 -154 475 -327 678 -404 200 -77 328
-105 594 -131 219 -22 332 -59 443 -147 64 -51 120 -118 155 -188 24 -48 103
-284 174 -518 l22 -72 104 -61 c58 -34 117 -69 131 -77 26 -16 27 -15 79 36
99 98 211 142 356 142 297 -1 516 -230 464 -486 -24 -120 -101 -213 -248 -299
-1 -1 18 -33 43 -71 57 -86 146 -267 174 -354 l21 -65 106 -17 c211 -35 459
-138 590 -245 281 -232 338 -607 142 -931 -63 -104 -145 -205 -160 -196 -6 4
-8 3 -5 -3 9 -14 -23 -55 -39 -49 -7 3 -11 0 -9 -7 5 -16 -111 -112 -215 -177
-175 -110 -321 -167 -619 -240 l-168 -42 -6 -111 c-11 -195 -77 -397 -194
-588 l-47 -78 -65 -7 c-66 -7 -247 1 -288 12 -21 6 -23 12 -23 79 0 120 -45
380 -70 408 -4 5 -39 -7 -76 -26 -157 -81 -316 -142 -498 -192 -140 -38 -320
-75 -366 -75 -27 0 -29 -3 -36 -47 -15 -100 4 -277 53 -489 4 -19 -5 -25 -81
-52 -47 -18 -130 -41 -183 -51 l-98 -20 -35 24 c-44 31 -173 162 -233 237 -65
81 -126 189 -163 288 -31 82 -34 85 -66 88 -190 16 -518 84 -682 141 -33 12
-64 21 -69 21 -12 0 -2 -82 24 -184 12 -48 17 -82 11 -88 -30 -30 -323 -105
-367 -94 -36 9 -232 209 -293 298 -108 158 -167 310 -179 463 l-6 79 -56 51
c-377 339 -581 728 -622 1180 -17 193 2 416 50 596 l19 69 -22 5 c-434 90
-702 198 -937 376 -72 54 -224 207 -215 216 2 2 55 -3 117 -12 126 -18 427
-32 456 -21 12 5 -32 20 -132 46 -177 45 -259 73 -379 129 -240 111 -426 286
-517 487 -16 35 -29 65 -29 67 0 2 37 -7 82 -20 92 -27 254 -40 307 -26 l34 9
-124 71 c-313 180 -514 384 -653 661 -36 71 -97 242 -111 309 l-7 33 99 -66
c363 -243 730 -379 1160 -429 240 -28 597 -15 856 31 239 43 413 5 551 -118
102 -90 198 -262 232 -416 33 -145 65 -267 73 -275 4 -4 48 18 97 48 110 70
337 181 465 229 240 89 542 154 801 173 l93 7 -57 17 c-32 9 -77 28 -101 42
-43 25 -127 108 -127 126 0 5 28 12 63 15 35 4 86 18 113 30 l49 23 -60 13
c-266 56 -489 227 -650 499 -6 11 -4 13 11 6 85 -36 160 -58 219 -64 68 -8 97
-5 78 8 -20 14 -122 142 -185 231 -86 125 -157 250 -218 389 -45 102 -120 318
-120 345 0 6 13 -5 28 -24 15 -19 62 -75 106 -124z m-1685 -3103 l24 -6 -6
-131 c-3 -72 -13 -167 -22 -210 -18 -89 -62 -206 -76 -206 -20 0 -72 47 -94
85 -47 81 -42 167 19 287 32 63 115 187 126 188 3 0 16 -3 29 -7z m66 -392
c-3 -11 -6 -62 -7 -115 -1 -90 -3 -96 -22 -96 -44 0 -45 11 -8 123 20 59 37
107 39 107 3 0 2 -9 -2 -19z m-628 -139 c-8 -96 -62 -230 -84 -208 -5 4 -8 35
-8 69 1 53 6 73 40 135 22 39 43 72 49 72 5 0 7 -28 3 -68z"/>
<path d="M7467 4166 c-51 -19 -63 -31 -83 -81 -21 -57 -13 -105 27 -150 54
-61 138 -70 197 -20 40 34 55 75 50 136 -6 59 -42 104 -97 119 -45 12 -48 12
-94 -4z m121 -98 c30 -30 -4 -77 -41 -57 -29 17 -15 69 18 69 6 0 16 -5 23
-12z"/>
<path d="M6035 3885 c-5 -2 -22 -6 -38 -9 -36 -8 -107 -73 -124 -113 -64 -154
91 -324 248 -272 43 15 107 74 125 116 16 37 18 110 4 147 -15 40 -78 104
-113 115 -43 13 -90 20 -102 16z m132 -151 c9 -24 -10 -49 -38 -49 -24 0 -36
23 -25 51 7 19 55 18 63 -2z"/>
<path d="M8482 3060 c-66 -27 -83 -205 -30 -306 15 -29 24 -55 20 -59 -4 -5
-2 -5 4 -2 14 8 57 -36 47 -48 -5 -4 -2 -5 5 -1 16 9 44 -12 35 -27 -3 -6 -1
-7 5 -3 6 4 35 0 64 -9 100 -29 137 -15 184 75 26 50 26 181 0 233 -29 58 -99
123 -153 141 -51 17 -144 20 -181 6z"/>
<path d="M7325 2722 c3 -3 -10 -22 -29 -41 -62 -64 -81 -115 -81 -211 0 -70 4
-93 24 -130 13 -25 22 -46 20 -46 -7 -2 84 -75 112 -90 25 -12 32 -12 71 5 64
27 100 62 133 128 51 100 37 215 -36 298 -47 53 -111 87 -170 90 -27 1 -47 0
-44 -3z"/>
<path d="M8909 2353 c-13 -16 -12 -17 4 -4 16 13 21 21 13 21 -2 0 -10 -8 -17
-17z"/>
</g>
</svg>
