{
    "asset" : {
        "generator" : "Khronos glTF Blender I/O v1.5.17",
        "version" : "2.0"
    },
    "scene" : 0,
    "scenes" : [
        {
            "name" : "Scene",
            "nodes" : [
                0,
                1,
                2
            ]
        }
    ],
    "nodes" : [
        {
            "name" : "Light",
            "rotation" : [
                0.16907575726509094,
                0.7558803558349609,
                -0.27217137813568115,
                0.570947527885437
            ],
            "translation" : [
                4.076245307922363,
                5.903861999511719,
                -1.0054539442062378
            ]
        },
        {
            "name" : "Camera",
            "rotation" : [
                0.483536034822464,
                0.33687159419059753,
                -0.20870360732078552,
                0.7804827094078064
            ],
            "translation" : [
                7.358891487121582,
                4.958309173583984,
                6.925790786743164
            ]
        },
        {
            "mesh" : 0,
            "name" : "Cube.001",
            "scale" : [
                0.0711667537689209,
                0.0711667537689209,
                0.0711667537689209
            ],
            "translation" : [
                0.027071956545114517,
                0.255609929561615,
                0
            ]
        }
    ],
    "materials" : [
        {
            "doubleSided" : true,
            "name" : "K\u00f6rper",
            "pbrMetallicRoughness" : {
                "baseColorFactor" : [
                    0.25415220856666565,
                    0.10461646318435669,
                    0.04373505711555481,
                    1
                ],
                "metallicFactor" : 0,
                "roughnessFactor" : 0.5
            }
        },
        {
            "doubleSided" : true,
            "name" : "Fu\u00df und Schwanz",
            "pbrMetallicRoughness" : {
                "baseColorFactor" : [
                    0.800000011920929,
                    0.800000011920929,
                    0.800000011920929,
                    1
                ],
                "metallicFactor" : 0,
                "roughnessFactor" : 0.5
            }
        },
        {
            "doubleSided" : true,
            "name" : "Material.001",
            "pbrMetallicRoughness" : {
                "baseColorFactor" : [
                    0,
                    0.3442322313785553,
                    1,
                    1
                ],
                "metallicFactor" : 0,
                "roughnessFactor" : 0.5
            }
        }
    ],
    "meshes" : [
        {
            "name" : "Cube.001",
            "primitives" : [
                {
                    "attributes" : {
                        "POSITION" : 0,
                        "NORMAL" : 1,
                        "TEXCOORD_0" : 2
                    },
                    "indices" : 3,
                    "material" : 0
                },
                {
                    "attributes" : {
                        "POSITION" : 4,
                        "NORMAL" : 5,
                        "TEXCOORD_0" : 6
                    },
                    "indices" : 7,
                    "material" : 1
                },
                {
                    "attributes" : {
                        "POSITION" : 8,
                        "NORMAL" : 9,
                        "TEXCOORD_0" : 10
                    },
                    "indices" : 11,
                    "material" : 2
                }
            ]
        }
    ],
    "accessors" : [
        {
            "bufferView" : 0,
            "componentType" : 5126,
            "count" : 1443,
            "max" : [
                4.465000152587891,
                3.084224224090576,
                1.1776989698410034
            ],
            "min" : [
                -5.714137077331543,
                -3.422870397567749,
                -1.1776989698410034
            ],
            "type" : "VEC3"
        },
        {
            "bufferView" : 1,
            "componentType" : 5126,
            "count" : 1443,
            "type" : "VEC3"
        },
        {
            "bufferView" : 2,
            "componentType" : 5126,
            "count" : 1443,
            "type" : "VEC2"
        },
        {
            "bufferView" : 3,
            "componentType" : 5123,
            "count" : 2454,
            "type" : "SCALAR"
        },
        {
            "bufferView" : 4,
            "componentType" : 5126,
            "count" : 421,
            "max" : [
                3.957794666290283,
                1.6512938737869263,
                1.0729752779006958
            ],
            "min" : [
                -5.959826469421387,
                -3.574951171875,
                -1.0729752779006958
            ],
            "type" : "VEC3"
        },
        {
            "bufferView" : 5,
            "componentType" : 5126,
            "count" : 421,
            "type" : "VEC3"
        },
        {
            "bufferView" : 6,
            "componentType" : 5126,
            "count" : 421,
            "type" : "VEC2"
        },
        {
            "bufferView" : 7,
            "componentType" : 5123,
            "count" : 660,
            "type" : "SCALAR"
        },
        {
            "bufferView" : 8,
            "componentType" : 5126,
            "count" : 4,
            "max" : [
                2.750460624694824,
                2.2022268772125244,
                0
            ],
            "min" : [
                1.5173267126083374,
                0.14023756980895996,
                0
            ],
            "type" : "VEC3"
        },
        {
            "bufferView" : 9,
            "componentType" : 5126,
            "count" : 4,
            "type" : "VEC3"
        },
        {
            "bufferView" : 10,
            "componentType" : 5126,
            "count" : 4,
            "type" : "VEC2"
        },
        {
            "bufferView" : 11,
            "componentType" : 5123,
            "count" : 6,
            "type" : "SCALAR"
        }
    ],
    "bufferViews" : [
        {
            "buffer" : 0,
            "byteLength" : 17316,
            "byteOffset" : 0
        },
        {
            "buffer" : 0,
            "byteLength" : 17316,
            "byteOffset" : 17316
        },
        {
            "buffer" : 0,
            "byteLength" : 11544,
            "byteOffset" : 34632
        },
        {
            "buffer" : 0,
            "byteLength" : 4908,
            "byteOffset" : 46176
        },
        {
            "buffer" : 0,
            "byteLength" : 5052,
            "byteOffset" : 51084
        },
        {
            "buffer" : 0,
            "byteLength" : 5052,
            "byteOffset" : 56136
        },
        {
            "buffer" : 0,
            "byteLength" : 3368,
            "byteOffset" : 61188
        },
        {
            "buffer" : 0,
            "byteLength" : 1320,
            "byteOffset" : 64556
        },
        {
            "buffer" : 0,
            "byteLength" : 48,
            "byteOffset" : 65876
        },
        {
            "buffer" : 0,
            "byteLength" : 48,
            "byteOffset" : 65924
        },
        {
            "buffer" : 0,
            "byteLength" : 32,
            "byteOffset" : 65972
        },
        {
            "buffer" : 0,
            "byteLength" : 12,
            "byteOffset" : 66004
        }
    ],
    "buffers" : [
        {
            "byteLength" : 66016,
            "uri" : "data:application/octet-stream;base64,"
        }
    ]
}
